<svg version="1.1" id="Layer_1" xmlns="http://www.w3.org/2000/svg" xmlns:xlink="http://www.w3.org/1999/xlink" x="0px" y="0px" viewBox="0 0 400 284.406" enable-background="new 0 0 400 284.406" xml:space="preserve" width="100%" height="100%" preserveAspectRatio="none"><g id="mark-copy-2" transform="translate(23.000000, 0.000000)"><g id="Rectangle"><path fill-rule="evenodd" clip-rule="evenodd" fill="#c3d665" d="M97.427,0h62.283c14.742,0,26.693,11.951,26.693,26.693v62.283 l0,0h-62.283c-14.742,0-26.693-11.951-26.693-26.693V0L97.427,0z" data-color-group="0"/></g><g id="Rectangle-Copy-30"><path fill-rule="evenodd" clip-rule="evenodd" fill="#c3d665" d="M203.085,105.659h62.283c14.742,0,26.693,11.951,26.693,26.693 v62.283l0,0h-62.283c-14.742,0-26.693-11.951-26.693-26.693V105.659L203.085,105.659z" data-color-group="0"/></g><g id="Rectangle-Copy-31"><path fill-rule="evenodd" clip-rule="evenodd" fill="#2f430f" d="M126.344,105.659h60.059l0,0v60.059 c0,9.828-7.967,17.795-17.795,17.795h-60.059l0,0v-60.059C108.549,113.626,116.516,105.659,126.344,105.659z" data-color-group="1"/></g><g id="Rectangle-Copy-32"><path fill-rule="evenodd" clip-rule="evenodd" fill="#2f430f" d="M220.881,22.244h48.937l0,0v48.937 c0,9.828-7.967,17.795-17.795,17.795h-48.937l0,0V40.039C203.085,30.211,211.053,22.244,220.881,22.244z" data-color-group="2"/></g></g><g enable-background="new "><path fill="#2f430f" d="M6.29,234.878v20.39h23.571v-20.39h6.363v48.733h-6.363v-22.847H6.29v22.847H0v-48.733H6.29z" data-color-group="3"/><path fill="#2f430f" d="M50.46,267.27c0.145,8.605,5.639,12.147,12.004,12.147c4.554,0,7.301-0.795,9.688-1.807l1.084,4.554 c-2.24,1.013-6.073,2.17-11.64,2.17c-10.773,0-17.208-7.086-17.208-17.643c0-10.555,6.218-18.872,16.413-18.872 c11.424,0,14.461,10.05,14.461,16.486c0,1.302-0.145,2.314-0.217,2.964H50.46z M69.115,262.716 c0.072-4.049-1.664-10.34-8.821-10.34c-6.434,0-9.255,5.929-9.76,10.34H69.115z" data-color-group="3"/><path fill="#2f430f" d="M102.514,283.611l-0.507-4.411h-0.217c-1.952,2.747-5.711,5.206-10.7,5.206 c-7.086,0-10.702-4.989-10.702-10.05c0-8.46,7.52-13.087,21.04-13.016v-0.722c0-2.892-0.795-8.098-7.953-8.098 c-3.254,0-6.651,1.012-9.11,2.602l-1.447-4.194c2.892-1.879,7.086-3.109,11.497-3.109c10.7,0,13.304,7.303,13.304,14.317v13.086 c0,3.037,0.145,6.003,0.578,8.388H102.514z M101.574,265.752c-6.941-0.143-14.823,1.085-14.823,7.881 c0,4.122,2.747,6.074,6.001,6.074c4.556,0,7.448-2.892,8.46-5.858c0.217-0.65,0.362-1.374,0.362-2.024V265.752z" data-color-group="3"/><path fill="#2f430f" d="M117.98,232.276h6.363v51.335h-6.363V232.276z" data-color-group="3"/><path fill="#2f430f" d="M142.705,238.565v10.05h9.11v4.846h-9.11v18.872c0,4.337,1.23,6.796,4.772,6.796 c1.662,0,2.892-0.217,3.687-0.435l0.288,4.772c-1.229,0.507-3.181,0.868-5.639,0.868c-2.964,0-5.349-0.94-6.868-2.675 c-1.809-1.88-2.459-4.989-2.459-9.11v-19.088h-5.423v-4.846h5.423v-8.386L142.705,238.565z" data-color-group="3"/><path fill="#2f430f" d="M158.969,232.276h6.363v21.835h0.145c1.012-1.807,2.604-3.399,4.556-4.482 c1.88-1.085,4.121-1.809,6.508-1.809c4.699,0,12.219,2.892,12.219,14.968v20.824h-6.363v-20.1c0-5.641-2.097-10.412-8.098-10.412 c-4.122,0-7.375,2.892-8.531,6.363c-0.362,0.867-0.435,1.807-0.435,3.036v21.114h-6.363V232.276z" data-color-group="3"/><path fill="#2f430f" d="M214.634,235.53c2.747-0.578,7.085-1.013,11.495-1.013c6.291,0,10.34,1.085,13.376,3.544 c2.532,1.88,4.051,4.771,4.051,8.603c0,4.701-3.11,8.821-8.243,10.702v0.145c4.627,1.157,10.05,4.988,10.05,12.219 c0,4.194-1.664,7.375-4.121,9.762c-3.399,3.109-8.895,4.554-16.848,4.554c-4.337,0-7.665-0.288-9.76-0.578V235.53z M220.924,255.485h5.713c6.651,0,10.555-3.471,10.555-8.17c0-5.713-4.337-7.955-10.7-7.955c-2.892,0-4.556,0.218-5.568,0.435 V255.485z M220.924,278.839c1.229,0.217,3.037,0.29,5.279,0.29c6.506,0,12.507-2.387,12.507-9.472c0-6.653-5.711-9.4-12.58-9.4 h-5.206V278.839z" data-color-group="3"/><path fill="#2f430f" d="M253.598,232.276h6.363v51.335h-6.363V232.276z" data-color-group="3"/><path fill="#2f430f" d="M302.329,265.825c0,12.942-8.966,18.582-17.426,18.582c-9.472,0-16.775-6.941-16.775-18.003 c0-11.714,7.665-18.583,17.353-18.583C295.532,247.82,302.329,255.123,302.329,265.825z M274.565,266.187 c0,7.663,4.411,13.447,10.628,13.447c6.073,0,10.629-5.711,10.629-13.592c0-5.929-2.964-13.449-10.485-13.449 C277.819,252.593,274.565,259.534,274.565,266.187z" data-color-group="3"/><path fill="#2f430f" d="M342.018,265.825c0,12.942-8.966,18.582-17.426,18.582c-9.472,0-16.775-6.941-16.775-18.003 c0-11.714,7.665-18.583,17.353-18.583C335.22,247.82,342.018,255.123,342.018,265.825z M314.253,266.187 c0,7.663,4.409,13.447,10.628,13.447c6.073,0,10.628-5.711,10.628-13.592c0-5.929-2.965-13.449-10.483-13.449 C317.506,252.593,314.253,259.534,314.253,266.187z" data-color-group="3"/><path fill="#2f430f" d="M350.037,258.089c0-3.616-0.072-6.579-0.288-9.473h5.568l0.288,5.641h0.217 c1.952-3.327,5.206-6.436,10.99-6.436c4.772,0,8.388,2.892,9.907,7.014h0.145c1.084-1.952,2.457-3.471,3.904-4.556 c2.097-1.59,4.411-2.459,7.736-2.459c4.627,0,11.497,3.037,11.497,15.184v20.607h-6.219V263.8c0-6.724-2.459-10.773-7.591-10.773 c-3.616,0-6.436,2.675-7.52,5.784c-0.29,0.868-0.507,2.025-0.507,3.182v21.619h-6.218v-20.969c0-5.568-2.459-9.617-7.303-9.617 c-3.976,0-6.869,3.182-7.881,6.363c-0.362,0.94-0.505,2.025-0.505,3.109v21.114h-6.219V258.089z" data-color-group="3"/></g></svg>