<svg version="1.1" id="Layer_1" xmlns="http://www.w3.org/2000/svg" xmlns:xlink="http://www.w3.org/1999/xlink" x="0px" y="0px" viewBox="0 0 400 533" enable-background="new 0 0 400 533" xml:space="preserve" width="100%" height="100%" preserveAspectRatio="none"><g><g><path fill="#c3d665" d="M142.294,51.261c6.325-14.334,3.44-35.631-7.585-47.048c-5.936-6.146-14.083-5.499-19.147,1.492 c-7.635,10.543-8.163,25.016-4.458,37.131C115.558,57.396,133.661,70.825,142.294,51.261z" data-color-group="0"/><path fill="#c3d665" d="M231.193,64.553c8.399-15.876,9.419-36.263-10.077-35.037c-18.216,1.146-32.482,33.248-21.248,47.522 C209.825,89.691,223.558,78.986,231.193,64.553z" data-color-group="0"/><path fill="#c3d665" d="M89.111,49.092c-0.574-0.429-1.129-0.798-1.658-1.099c-8.776-4.989-22.116-4.744-25.71,6.442 c-5.682,17.684,29.875,40.058,40.396,23.825C107.158,70.516,96.599,54.693,89.111,49.092z" data-color-group="0"/><path fill="#c3d665" d="M233.96,115.672c-8.227-0.986-15.993,5.82-18.313,13.045c-3.003,9.357,0.746,32.73,14.573,30.891 c7.077-0.941,12.513-9.436,14.763-18.746C247.321,131.194,246.402,117.164,233.96,115.672z" data-color-group="0"/><path fill="#c3d665" d="M312.858,104.023c7.054-9.41,13.831-31.063-3.012-34.407c-16.597-3.295-38.125,26.661-26.023,40.58 c0.224,0.258,0.46,0.511,0.708,0.757C291.775,118.169,307.859,110.692,312.858,104.023z" data-color-group="0"/><path fill="#c3d665" d="M396.67,168.806c-6.871-6.651-17.418-5.895-26.525-2.432c-4.279,1.627-8.24,3.852-11.352,6.188 c-5.687,4.267-14.047,13.376-3.511,17.541c9.848,3.892,22.937,4.352,32.855,0.528C396.513,187.402,404.801,176.677,396.67,168.806 z" data-color-group="0"/><path fill="#c3d665" d="M62.314,170.922c9.814,8.624,20.57,3.054,21.299-10.207c0.488-8.886-0.308-22.148-7.864-28.285 c-11.057-8.981-27.694,1.259-26.342,14.647C50.256,155.48,56.056,165.423,62.314,170.922z" data-color-group="0"/><path fill="#c3d665" d="M49.343,225.531c2.89-14.493-30.067-10.072-37.768-6.441c-6.514,3.071-16.054,10.098-9.208,17.771 c6.475,7.256,16.046,9.157,25.181,6.52C34.737,241.304,47.699,233.773,49.343,225.531z" data-color-group="0"/><path fill="#c3d665" d="M56.054,273.394c-10.781,5.106-21.199,23.849-9.86,33.521c15.062,12.849,32.232-10.338,37.919-22.115 C93.123,266.139,65.483,268.929,56.054,273.394z" data-color-group="0"/><path fill="#c3d665" d="M127.007,320.266c-12.631,3.487-16.777,20.266-2.689,25.687c10.928,4.205,31.5-1.97,39.039-10.656 C179.505,316.695,135.264,317.986,127.007,320.266z" data-color-group="0"/><path fill="#c3d665" d="M322.909,281.274c-7.89-5.268-18.053,0.664-22.943,7.277c-5.324,7.2-8.785,18.155-4.863,26.813 c0.327,0.722,0.706,1.428,1.139,2.115C306.296,333.422,343.503,295.026,322.909,281.274z" data-color-group="0"/><path fill="#c3d665" d="M382.252,350.115c-11.665-4.698-36.573,2.379-39.618,16.628c-0.892,4.188,1.229,9.103,5.402,10.399 c11.563,3.593,37.97,3.289,43.025-11.161C393.268,359.675,388.447,352.61,382.252,350.115z" data-color-group="0"/></g><path fill="#c3d665" d="M179.932,333.156c11.195,2.596,21.724,7.699,31.542,13.574c18.198,10.891,22.355,32.163,27.437,51.221 c6.099,22.87,15.872,113.76,27.387,130.995c2.817,4.216,6.064,6.298,6.91,0.431c0.862-5.976-3.216-15.342-4.687-21.168 c-3.595-14.234-11.885-65.03-13.441-76.01c-1.419-10.017-1.257-18.446,5.351-26.624c5.868-7.262,13.71-12.75,22.355-16.201 c14.935-5.961,30.515-11.461,46.235-14.864c4.772-1.033,9.619-1.654,14.457-2.281c2.67-0.346,8.72,0.031,9.323-3.741 c0.842-5.264-9.606-2.967-12.109-2.622c-7.779,1.072-15.514,2.473-23.167,4.236c-15.159,3.492-29.994,8.414-44.156,14.865 c1.284-0.585,2.947-4.397,3.757-5.611c6.98-10.459,13.832-21.095,19.039-32.573c1.503-3.313,12.749-33.529,5.875-33.677 c-0.387-0.008-0.76,0.152-1.085,0.363c-1.5,0.973-2.053,2.865-2.542,4.586c-1.042,3.667-2.674,7.184-3.632,10.849 c-2.094,8.01-6.215,16.434-9.766,23.909c-4.813,10.132-10.683,19.741-17.284,28.802c-4.692,6.441-10.531,12.168-14.858,18.836 c-0.612,0.943-4.74,5.394-4.548,6.247c-1.011-4.497-1.337-9.262-2.594-13.62c-4.41-15.287-9.809-30.378-15.045-45.566 c-2.817-8.171-5.627-16.345-8.317-24.559c-4.682-14.296-4.876-31.566,0.908-45.552c1.924-4.652,4.063-9.215,6.373-13.688 c4.548-8.806,9.762-17.257,15.376-25.419c7.782-11.316,17.444-22.845,32.031-24.751c16.02-2.094,31.961-5.376,47.246-10.676 c7.56-2.621,14.904-5.836,22.094-9.338c3.684-1.794,7.329-3.669,10.949-5.589c1.722-0.913,4.175-2.74,3.206-4.474 c-0.261-0.467-0.77-0.927-1.608-1.361c-4.411-2.284-11.43,2.679-15.234,4.589c-5.29,2.657-10.541,5.449-16.083,7.578 c-10.126,3.89-20.711,6.585-31.454,8.071c-10.55,1.459-21.546,1.12-30.999,6.491c1.315-2.621,2.317-5.241,3.205-8.034 c6.385-20.082,5.64-41.062,8.547-61.806c1.662-11.86,8.018-16.864,15.115-26.234c1.645-2.172,3.711-4.393,1.377-6.999 c-5.51-6.149-19.693,18.972-21.1,23.058c-3.304,9.595-3.775,21.305-4.414,31.372c-0.8,12.596-3.183,25.092-7.087,37.095 c-1.853,5.697-4.07,11.33-7.354,16.34c-5.032,7.676-10.248,15.006-16.347,21.885c-0.218-3.903-1.254-7.928-2.33-11.682 c-5.702-19.903-11.064-38.379-6.756-59.219c0.635-3.07,1.62-6.968,1.035-10.117c-0.5-2.691-3.65-3.237-4.963-0.691 c-1.408,2.73-1.44,5.365-1.748,8.298c-1.491,14.172-1.285,28.547,1.178,42.601c0.971,5.506,2.078,10.987,3.309,16.441 c1.135,5.03,3.353,10.457,3.604,15.598c0.29,5.947-1.524,11.999-4.073,17.283c-4.67,9.68-9.211,19.384-12.45,29.653 c-0.647,2.052-1.106,4.08-1.419,6.096c-1.656-6.352-3.177-12.739-4.476-19.175c-1.473-7.296-2.73-14.648-4.773-21.805 c-4.969-17.406-10.814-28.335-18.164-50.271c-4.144-12.366-8.868-24.688-7.5-37.944c0.442-4.279,2.348-8.264,3.955-12.268 c4.155-10.356,8.085-20.164,9.945-31.236c1.853-11.029,3.815-22.248,11.131-31.142c1.184-1.439,12.152-12.42,3.991-11.746 c-3.524,0.291-4.658,2.713-6.76,5.152c-1.47,1.706-2.98,3.402-4.342,5.197c-7.244,9.55-8.935,22.038-11.162,33.819 c-1.878,9.934-6.129,18.804-10.162,28.037c-0.764,1.749-3.704,7.396-3.043,9.108c-3.833-9.922-9.29-19.083-12.448-29.298 c-2.645-8.555-5.078-17.181-8.184-25.585c-3.336-9.023-6.799-17.999-10.079-27.043c-1.616-4.454-3.188-8.923-4.678-13.421 c-0.835-2.52-1.546-9.017-5.545-8.193c-5.027,1.036-0.895,9.027-0.055,11.716c1.573,5.037,3.151,10.072,4.735,15.105 c1.629,5.173,3.266,10.344,4.912,15.512c0.801,2.515,1.605,5.029,2.412,7.542c0.637,1.986,1.047,5.474,2.293,7.121 c-3.013-3.983-6.28-8.01-9.585-11.319c-4.761-4.767-10.681-8.174-16.525-11.523c-3.829-2.194-7.734-4.249-11.672-6.24 c-2.287-1.156-8.539-5.778-11.064-4.054c-0.75,0.512-1.184,1.42-1.214,2.328c-0.148,4.361,9.528,7.713,12.484,9.349 c5.76,3.188,11.473,6.497,16.78,10.407c10.17,7.491,19.337,19.153,25.175,30.221c7.238,13.722,14.464,27.581,19.585,42.262 c3.087,8.851,6.015,18.44,8.703,27.277c1.615,5.309,3.591,10.498,5.309,15.773c1.606,4.932,3.692,9.751,4.907,14.782 c-3.685-3.153-9.719-4.233-14.4-5.067c-5.172-0.922-10.423-1.237-15.625-1.936c-14.096-1.893-28.281-3.157-42.496-3.653 c-6.654-0.232-14.444,0.921-20.277-2.893c-4.561-2.983-6.703-8.257-8.284-13.251c-3.129-9.881-5.335-20.094-8.719-29.888 c-0.586-1.696-2.454-4.055-4.522-3.437c-4.102,1.228-0.351,10.381,0.478,12.868c1.272,3.82,2.53,7.645,3.782,11.473 c2.582,7.913,4.171,19.585,11.191,24.934c-4.777-0.116-9.448-0.263-14.197-0.102c-6.063,0.209-12.122,0.576-18.161,1.158 c-4.451,0.429-12.415-0.201-15.436,3.675c-0.499,0.64-0.889,1.412-0.862,2.222c0.044,1.31,1.194,2.371,2.449,2.745 c2.69,0.802,6.027,0.221,8.741-0.105c3.75-0.45,7.514-0.785,11.282-1.044c7.565-0.52,15.147-0.727,22.727-0.85 c4.962-0.08,9.925-0.06,14.886,0.035c0.219,0.071,0.439,0.142,0.658,0.212c-0.153-0.049-0.305-0.145-0.457-0.21 c7.012,0.138,14.021,0.442,21.02,0.89c3.474,0.222,7.023,0.766,10.5,0.779c1.883,0.007,6.733,1.074,8.18,0.384 c-5.608,2.673-10.975,5.704-15.554,9.837c-4.868,4.393-9.898,8.623-14.881,12.885c-5.417,4.634-10.964,9.114-16.581,13.503 c-2.809,2.195-5.635,4.366-8.473,6.523c-2.13,1.619-5.783,3.538-5.494,6.728c0.12,1.321,1.037,2.563,2.299,2.968 c3.699,1.185,8.213-3.145,10.845-5.097c3.756-2.784,7.451-5.65,11.09-8.586c7.196-5.807,14.167-11.89,20.961-18.162 c9.263-8.552,20.692-18.779,34.329-17.916c11.34,0.718,26.488,2.951,32.811,13.754c3.658,6.249,5.021,13.184,6.884,20.161 c2.077,7.782,4.137,15.568,6.341,23.316c5.428,19.087,11.73,37.906,17.928,56.756c-7.979-7.336-18.106-12.339-28.387-15.543 c-5.48-1.708-11.132-2.904-16.847-3.467c-3.869-0.381-7.817-0.939-11.707-0.538c-2.067,0.213-6.284,1.109-6.533,3.636 c-0.147,1.488,0.658,2.265,1.934,2.865c2.593,1.218,5.866,0.803,8.645,0.901C172.989,331.814,176.493,332.359,179.932,333.156z" data-color-group="1"/></g></svg>